<svg width="16" height="16" viewBox="0 0 16 16" fill="none" xmlns="http://www.w3.org/2000/svg">
  <path d="M8 1C5.24 1 3 3.24 3 6c0 1.1.36 2.12.97 2.95C3.36 9.78 3 10.84 3 12c0 1.66 1.34 3 3 3h4c1.66 0 3-1.34 3-3 0-1.16-.36-2.22-.97-3.05C12.64 8.12 13 7.1 13 6c0-2.76-2.24-5-5-5zM6 14c-1.1 0-2-.9-2-2 0-.74.27-1.42.71-1.96C5.56 10.64 6.74 11 8 11s2.44-.36 3.29-.96c.44.54.71 1.22.71 1.96 0 1.1-.9 2-2 2H6zM8 10c-2.21 0-4-1.79-4-4s1.79-4 4-4 4 1.79 4 4-1.79 4-4 4zM7 5.5c0-.55-.45-1-1-1s-1 .45-1 1 .45 1 1 1 1-.45 1-1zM11 5.5c0-.55-.45-1-1-1s-1 .45-1 1 .45 1 1 1 1-.45 1-1z" fill="currentColor"/>
</svg>
